<?xml version="1.0" encoding="UTF-8" standalone="no"?>
<!DOCTYPE svg PUBLIC "-//W3C//DTD SVG 1.1//EN" "http://www.w3.org/Graphics/SVG/1.1/DTD/svg11.dtd">
<svg width="100%" height="100%" viewBox="0 0 997 687" version="1.1" xmlns="http://www.w3.org/2000/svg" xmlns:xlink="http://www.w3.org/1999/xlink" xml:space="preserve" xmlns:serif="http://www.serif.com/" style="fill-rule:evenodd;clip-rule:evenodd;stroke-linejoin:round;stroke-miterlimit:2;">
    <g>
        <path d="M997,141.81c0,-78.267 -63.543,-141.81 -141.81,-141.81l-713.38,0c-78.267,0 -141.81,63.543 -141.81,141.81l-0,403.38c-0,78.267 63.543,141.81 141.81,141.81l713.38,0c78.267,0 141.81,-63.543 141.81,-141.81l0,-403.38Z" style="fill:#474747;"/>
        <path d="M942.5,153.57c-0,-52.195 -42.375,-94.57 -94.57,-94.57l-698.86,0c-52.195,0 -94.57,42.375 -94.57,94.57l-0,379.86c-0,52.195 42.375,94.57 94.57,94.57l698.86,-0c52.195,-0 94.57,-42.375 94.57,-94.57l-0,-379.86Z" style="fill:#ffc900;"/>
    </g>
</svg>
