<?xml version="1.0" encoding="UTF-8" standalone="no"?>
<!DOCTYPE svg PUBLIC "-//W3C//DTD SVG 1.1//EN" "http://www.w3.org/Graphics/SVG/1.1/DTD/svg11.dtd">
<svg width="100%" height="100%" viewBox="0 0 1927 405" version="1.1" xmlns="http://www.w3.org/2000/svg" xmlns:xlink="http://www.w3.org/1999/xlink" xml:space="preserve" xmlns:serif="http://www.serif.com/" style="fill-rule:evenodd;clip-rule:evenodd;stroke-linejoin:round;stroke-miterlimit:2;">
    <path d="M845,29.528l0,148.472c-149.459,0 -815.472,0 -815.472,0c-16.308,0 -29.528,13.22 -29.528,29.528l0,167c0,16.296 13.231,29.527 29.528,29.527c16.296,0 29.527,-13.231 29.527,-29.527l0,-137.473c149.459,0 815.473,0 815.473,0c16.307,0 29.527,-13.22 29.527,-29.527l0,-178c0,-16.297 -13.231,-29.528 -29.527,-29.528c-16.297,-0 -29.528,13.231 -29.528,29.528Zm84.579,13.818l-0,331.182c-0,16.296 13.231,29.527 29.527,29.527c16.297,0 29.528,-13.231 29.528,-29.527l-0,-331.182c-0,-16.297 -13.231,-29.527 -29.528,-29.527c-16.296,-0 -29.527,13.23 -29.527,29.527Zm92.578,-13.818l0,178c0,16.307 13.22,29.527 29.528,29.527l815.472,0c0,0 0,137.473 0,137.473c0,16.296 13.231,29.527 29.528,29.527c16.297,0 29.528,-13.231 29.528,-29.527l-0,-167c-0,-16.308 -13.22,-29.528 -29.528,-29.528l-815.472,-0c-0,-50.596 -0,-148.472 -0,-148.472c-0,-16.297 -13.231,-29.528 -29.528,-29.528c-16.297,0 -29.528,13.231 -29.528,29.528Z" style="fill:#474747;"/>
    <clipPath id="_clip1">
        <path d="M845,29.528l0,148.472c-149.459,0 -815.472,0 -815.472,0c-16.308,0 -29.528,13.22 -29.528,29.528l0,167c0,16.296 13.231,29.527 29.528,29.527c16.296,0 29.527,-13.231 29.527,-29.527l0,-137.473c149.459,0 815.473,0 815.473,0c16.307,0 29.527,-13.22 29.527,-29.527l0,-178c0,-16.297 -13.231,-29.528 -29.527,-29.528c-16.297,-0 -29.528,13.231 -29.528,29.528Zm84.579,13.818l-0,331.182c-0,16.296 13.231,29.527 29.527,29.527c16.297,0 29.528,-13.231 29.528,-29.527l-0,-331.182c-0,-16.297 -13.231,-29.527 -29.528,-29.527c-16.296,-0 -29.527,13.23 -29.527,29.527Zm92.578,-13.818l0,178c0,16.307 13.22,29.527 29.528,29.527l815.472,0c0,0 0,137.473 0,137.473c0,16.296 13.231,29.527 29.528,29.527c16.297,0 29.528,-13.231 29.528,-29.527l-0,-167c-0,-16.308 -13.22,-29.528 -29.528,-29.528l-815.472,-0c-0,-50.596 -0,-148.472 -0,-148.472c-0,-16.297 -13.231,-29.528 -29.528,-29.528c-16.297,0 -29.528,13.231 -29.528,29.528Z"/>
    </clipPath>
    <g clip-path="url(#_clip1)">
        <rect x="815.555" y="25" width="289" height="67.465" style="fill:url(#_Linear2);"/>
    </g>
    <defs>
        <linearGradient id="_Linear2" x1="0" y1="0" x2="1" y2="0" gradientUnits="userSpaceOnUse" gradientTransform="matrix(3.46131e-15,56.5276,-48.0358,2.94135e-15,971.493,25)"><stop offset="0" style="stop-color:#000;stop-opacity:0.36"/><stop offset="1" style="stop-color:#000;stop-opacity:0"/></linearGradient>
    </defs>
</svg>
