<?xml version="1.0" encoding="UTF-8" standalone="no"?>
<!DOCTYPE svg PUBLIC "-//W3C//DTD SVG 1.1//EN" "http://www.w3.org/Graphics/SVG/1.1/DTD/svg11.dtd">
<svg width="100%" height="100%" viewBox="0 0 194 60" version="1.1" xmlns="http://www.w3.org/2000/svg" xmlns:xlink="http://www.w3.org/1999/xlink" xml:space="preserve" xmlns:serif="http://www.serif.com/" style="fill-rule:evenodd;clip-rule:evenodd;stroke-linejoin:round;stroke-miterlimit:2;">
    <g>
        <path d="M-0,0.824l13.673,-0c4.667,-0 8.072,1.084 10.213,3.253c2.142,2.169 3.213,5.505 3.213,10.008l-0,2.306c-0,2.965 -0.481,5.381 -1.442,7.248c-0.961,1.867 -2.43,3.213 -4.406,4.036l-0,0.165c4.502,1.537 6.754,5.546 6.754,12.025l-0,4.943c-0,4.447 -1.167,7.838 -3.501,10.172c-2.334,2.334 -5.752,3.5 -10.255,3.5l-14.249,0l-0,-57.656Zm12.602,23.474c1.812,0 3.171,-0.467 4.077,-1.4c0.906,-0.934 1.359,-2.499 1.359,-4.695l0,-3.212c0,-2.087 -0.37,-3.597 -1.112,-4.53c-0.741,-0.934 -1.908,-1.401 -3.5,-1.401l-4.366,0l0,15.238l3.542,0Zm1.647,25.946c1.593,-0 2.773,-0.426 3.542,-1.277c0.769,-0.851 1.153,-2.32 1.153,-4.407l0,-5.024c0,-2.636 -0.453,-4.461 -1.359,-5.477c-0.906,-1.016 -2.402,-1.524 -4.489,-1.524l-4.036,-0l0,17.709l5.189,-0Z" style="fill-rule:nonzero;"/>
        <path d="M33.276,0.824l13.426,-0c4.667,-0 8.072,1.084 10.213,3.253c2.142,2.169 3.213,5.505 3.213,10.008l-0,3.541c-0,5.986 -1.977,9.775 -5.931,11.367l0,0.165c2.197,0.659 3.748,2.004 4.654,4.036c0.906,2.032 1.359,4.75 1.359,8.154l0,10.131c0,1.648 0.055,2.979 0.165,3.995c0.11,1.016 0.384,2.018 0.823,3.006l-9.225,0c-0.329,-0.933 -0.549,-1.812 -0.659,-2.635c-0.109,-0.824 -0.164,-2.307 -0.164,-4.448l-0,-10.543c-0,-2.636 -0.426,-4.475 -1.277,-5.519c-0.851,-1.043 -2.32,-1.565 -4.407,-1.565l-3.129,0l-0,24.71l-9.061,0l0,-57.656Zm12.355,24.71c1.812,-0 3.171,-0.467 4.077,-1.401c0.906,-0.933 1.359,-2.498 1.359,-4.694l0,-4.448c0,-2.087 -0.37,-3.597 -1.112,-4.53c-0.741,-0.934 -1.908,-1.401 -3.5,-1.401l-4.118,0l-0,16.474l3.294,-0Z" style="fill-rule:nonzero;"/>
        <path d="M73.471,0.824l12.273,-0l9.39,57.656l-9.061,0l-1.647,-11.449l-0,0.165l-10.296,0l-1.647,11.284l-8.402,0l9.39,-57.656Zm9.884,38.547l-4.036,-28.499l-0.165,0l-3.953,28.499l8.154,0Z" style="fill-rule:nonzero;"/>
        <path d="M99.499,0.824l11.367,-0l8.813,34.511l0.165,0l-0,-34.511l8.072,-0l-0,57.656l-9.308,0l-10.872,-42.089l-0.165,-0l-0,42.089l-8.072,0l0,-57.656Z" style="fill-rule:nonzero;"/>
        <path d="M134.67,0.824l13.837,-0c4.503,-0 7.88,1.208 10.131,3.624c2.252,2.416 3.377,5.958 3.377,10.625l0,29.158c0,4.667 -1.125,8.209 -3.377,10.625c-2.251,2.416 -5.628,3.624 -10.131,3.624l-13.837,0l-0,-57.656Zm13.672,49.42c1.483,-0 2.622,-0.44 3.419,-1.318c0.796,-0.879 1.194,-2.306 1.194,-4.283l0,-29.982c0,-1.977 -0.398,-3.404 -1.194,-4.283c-0.797,-0.878 -1.936,-1.318 -3.419,-1.318l-4.612,0l-0,41.184l4.612,-0Z" style="fill-rule:nonzero;"/>
        <path d="M179.889,59.304c-4.393,0 -7.715,-1.249 -9.966,-3.748c-2.252,-2.498 -3.377,-6.081 -3.377,-10.748l-0,-3.295l8.566,-0l-0,3.953c-0,3.734 1.565,5.601 4.695,5.601c1.537,0 2.704,-0.453 3.5,-1.359c0.796,-0.906 1.194,-2.375 1.194,-4.406c0,-2.416 -0.549,-4.544 -1.647,-6.384c-1.098,-1.839 -3.13,-4.049 -6.095,-6.63c-3.734,-3.295 -6.342,-6.274 -7.825,-8.937c-1.482,-2.663 -2.224,-5.67 -2.224,-9.019c0,-4.558 1.153,-8.086 3.46,-10.584c2.306,-2.499 5.656,-3.748 10.048,-3.748c4.338,-0 7.619,1.249 9.843,3.748c2.224,2.498 3.336,6.081 3.336,10.749l0,2.388l-8.566,0l-0,-2.965c-0,-1.977 -0.384,-3.418 -1.153,-4.324c-0.769,-0.906 -1.895,-1.359 -3.377,-1.359c-3.02,-0 -4.53,1.839 -4.53,5.518c-0,2.087 0.562,4.036 1.688,5.848c1.126,1.812 3.171,4.009 6.136,6.59c3.789,3.294 6.398,6.287 7.825,8.978c1.428,2.69 2.142,5.848 2.142,9.472c-0,4.722 -1.167,8.346 -3.501,10.872c-2.333,2.526 -5.724,3.789 -10.172,3.789Z" style="fill-rule:nonzero;"/>
    </g>
</svg>
