<?xml version="1.0" encoding="UTF-8" standalone="no"?>
<!DOCTYPE svg PUBLIC "-//W3C//DTD SVG 1.1//EN" "http://www.w3.org/Graphics/SVG/1.1/DTD/svg11.dtd">
<svg width="100%" height="100%" viewBox="0 0 1927 495" version="1.1" xmlns="http://www.w3.org/2000/svg" xmlns:xlink="http://www.w3.org/1999/xlink" xml:space="preserve" xmlns:serif="http://www.serif.com/" style="fill-rule:evenodd;clip-rule:evenodd;stroke-linejoin:round;stroke-miterlimit:2;">
    <path d="M845,0l0,178.472c-149.459,0 -815.472,0 -815.472,0c-16.308,0 -29.528,13.22 -29.528,29.528l0,287l59.055,0l0,-257.472c149.459,-0 815.473,-0 815.473,-0c16.307,-0 29.527,-13.22 29.527,-29.528l0,-208l-59.055,-0Zm84.579,0.819l-0,494.181l59.055,0l-0,-494.181l-59.055,-0Zm92.578,-0.819l0,208c0,16.308 13.22,29.528 29.528,29.528l815.472,-0c0,-0 0,257.472 0,257.472l59.056,-0l-0,-287c-0,-16.308 -13.22,-29.528 -29.528,-29.528l-815.472,0c-0,-50.596 -0,-178.472 -0,-178.472l-59.056,0Z" style="fill:#474747;"/>
    <clipPath id="_clip1">
        <path d="M845,0l0,178.472c-149.459,0 -815.472,0 -815.472,0c-16.308,0 -29.528,13.22 -29.528,29.528l0,287l59.055,0l0,-257.472c149.459,-0 815.473,-0 815.473,-0c16.307,-0 29.527,-13.22 29.527,-29.528l0,-208l-59.055,-0Zm84.579,0.819l-0,494.181l59.055,0l-0,-494.181l-59.055,-0Zm92.578,-0.819l0,208c0,16.308 13.22,29.528 29.528,29.528l815.472,-0c0,-0 0,257.472 0,257.472l59.056,-0l-0,-287c-0,-16.308 -13.22,-29.528 -29.528,-29.528l-815.472,0c-0,-50.596 -0,-178.472 -0,-178.472l-59.056,0Z"/>
    </clipPath>
    <g clip-path="url(#_clip1)">
        <rect x="815.555" y="25.472" width="289" height="67.465" style="fill:url(#_Linear2);"/>
    </g>
    <defs>
        <linearGradient id="_Linear2" x1="0" y1="0" x2="1" y2="0" gradientUnits="userSpaceOnUse" gradientTransform="matrix(3.46131e-15,56.5276,-48.0358,2.94135e-15,971.493,25.4724)"><stop offset="0" style="stop-color:#000;stop-opacity:0.36"/><stop offset="1" style="stop-color:#000;stop-opacity:0"/></linearGradient>
    </defs>
</svg>
