<?xml version="1.0" encoding="UTF-8" standalone="no"?>
<!DOCTYPE svg PUBLIC "-//W3C//DTD SVG 1.1//EN" "http://www.w3.org/Graphics/SVG/1.1/DTD/svg11.dtd">
<svg width="100%" height="100%" viewBox="0 0 134 60" version="1.1" xmlns="http://www.w3.org/2000/svg" xmlns:xlink="http://www.w3.org/1999/xlink" xml:space="preserve" xmlns:serif="http://www.serif.com/" style="fill-rule:evenodd;clip-rule:evenodd;stroke-linejoin:round;stroke-miterlimit:2;">
    <g>
        <path d="M13.343,59.304c-4.392,0 -7.715,-1.249 -9.966,-3.748c-2.251,-2.498 -3.377,-6.081 -3.377,-10.748l-0,-3.295l8.566,-0l0,3.953c0,3.734 1.565,5.601 4.695,5.601c1.538,0 2.704,-0.453 3.501,-1.359c0.796,-0.906 1.194,-2.375 1.194,-4.406c-0,-2.416 -0.549,-4.544 -1.647,-6.384c-1.099,-1.839 -3.13,-4.049 -6.096,-6.63c-3.733,-3.295 -6.342,-6.274 -7.824,-8.937c-1.483,-2.663 -2.224,-5.67 -2.224,-9.019c-0,-4.558 1.153,-8.086 3.459,-10.584c2.306,-2.499 5.656,-3.748 10.049,-3.748c4.338,-0 7.619,1.249 9.843,3.748c2.224,2.498 3.336,6.081 3.336,10.749l-0,2.388l-8.567,0l0,-2.965c0,-1.977 -0.384,-3.418 -1.153,-4.324c-0.768,-0.906 -1.894,-1.359 -3.377,-1.359c-3.02,-0 -4.53,1.839 -4.53,5.518c0,2.087 0.563,4.036 1.689,5.848c1.125,1.812 3.171,4.009 6.136,6.59c3.789,3.294 6.397,6.287 7.825,8.978c1.427,2.69 2.141,5.848 2.141,9.472c0,4.722 -1.167,8.346 -3.5,10.872c-2.334,2.526 -5.725,3.789 -10.173,3.789Z" style="fill-rule:nonzero;"/>
        <rect x="32.205" y="0.824" width="9.06" height="57.657" style="fill-rule:nonzero;"/>
        <path d="M55.103,9.06l-9.472,0l0,-8.236l28.005,-0l-0,8.236l-9.472,0l-0,49.42l-9.061,0l0,-49.42Z" style="fill-rule:nonzero;"/>
        <path d="M78.001,0.824l24.71,-0l0,8.236l-15.649,0l-0,15.238l12.437,0l0,8.237l-12.437,-0l-0,17.709l15.649,-0l0,8.236l-24.71,0l0,-57.656Z" style="fill-rule:nonzero;"/>
        <path d="M119.844,59.304c-4.393,0 -7.715,-1.249 -9.967,-3.748c-2.251,-2.498 -3.377,-6.081 -3.377,-10.748l0,-3.295l8.566,-0l0,3.953c0,3.734 1.565,5.601 4.695,5.601c1.538,0 2.705,-0.453 3.501,-1.359c0.796,-0.906 1.194,-2.375 1.194,-4.406c0,-2.416 -0.549,-4.544 -1.647,-6.384c-1.098,-1.839 -3.13,-4.049 -6.095,-6.63c-3.734,-3.295 -6.343,-6.274 -7.825,-8.937c-1.483,-2.663 -2.224,-5.67 -2.224,-9.019c-0,-4.558 1.153,-8.086 3.459,-10.584c2.307,-2.499 5.656,-3.748 10.049,-3.748c4.338,-0 7.619,1.249 9.843,3.748c2.224,2.498 3.336,6.081 3.336,10.749l-0,2.388l-8.566,0l-0,-2.965c-0,-1.977 -0.385,-3.418 -1.154,-4.324c-0.768,-0.906 -1.894,-1.359 -3.377,-1.359c-3.02,-0 -4.53,1.839 -4.53,5.518c0,2.087 0.563,4.036 1.689,5.848c1.125,1.812 3.171,4.009 6.136,6.59c3.789,3.294 6.397,6.287 7.825,8.978c1.428,2.69 2.141,5.848 2.141,9.472c0,4.722 -1.166,8.346 -3.5,10.872c-2.334,2.526 -5.725,3.789 -10.172,3.789Z" style="fill-rule:nonzero;"/>
    </g>
</svg>
