<?xml version="1.0" encoding="UTF-8" standalone="no"?>
<!DOCTYPE svg PUBLIC "-//W3C//DTD SVG 1.1//EN" "http://www.w3.org/Graphics/SVG/1.1/DTD/svg11.dtd">
<svg width="100%" height="100%" viewBox="0 0 335 286" version="1.1" xmlns="http://www.w3.org/2000/svg" xmlns:xlink="http://www.w3.org/1999/xlink" xml:space="preserve" xmlns:serif="http://www.serif.com/" style="fill-rule:evenodd;clip-rule:evenodd;stroke-linejoin:round;stroke-miterlimit:2;">
    <g>
        <path d="M335,57.5c0,-31.735 -25.765,-57.5 -57.5,-57.5l-220,0c-31.735,0 -57.5,25.765 -57.5,57.5l0,115c0,31.735 25.765,57.5 57.5,57.5l220,0c31.735,0 57.5,-25.765 57.5,-57.5l0,-115Z" style="fill:#474747;"/>
        <rect x="54.5" y="90.066" width="226" height="88.434"/>
        <path d="M302.685,286l-270.37,0l-0,-105.869l40.364,-65.131l189.642,0l40.364,65.131l0,105.869Z" style="fill:#ffc900;"/>
        <clipPath id="_clip1">
            <path d="M302.685,286l-270.37,0l-0,-105.869l40.364,-65.131l189.642,0l40.364,65.131l0,105.869Z"/>
        </clipPath>
        <g clip-path="url(#_clip1)">
            <rect x="7.435" y="176.5" width="328" height="113" style="fill-opacity:0.1;"/>
        </g>
        <g>
            <path d="M107.043,259.804c-4.393,0 -7.715,-1.249 -9.967,-3.748c-2.251,-2.498 -3.377,-6.081 -3.377,-10.748l0,-3.295l8.567,-0l-0,3.953c-0,3.734 1.565,5.601 4.694,5.601c1.538,0 2.705,-0.453 3.501,-1.359c0.796,-0.906 1.194,-2.375 1.194,-4.406c0,-2.416 -0.549,-4.544 -1.647,-6.384c-1.098,-1.839 -3.13,-4.049 -6.095,-6.63c-3.734,-3.295 -6.342,-6.274 -7.825,-8.937c-1.483,-2.663 -2.224,-5.67 -2.224,-9.019c0,-4.558 1.153,-8.086 3.46,-10.584c2.306,-2.499 5.655,-3.748 10.048,-3.748c4.338,-0 7.619,1.249 9.843,3.748c2.224,2.498 3.336,6.081 3.336,10.749l-0,2.388l-8.566,0l-0,-2.965c-0,-1.977 -0.385,-3.418 -1.153,-4.324c-0.769,-0.906 -1.895,-1.359 -3.377,-1.359c-3.02,-0 -4.531,1.839 -4.531,5.518c0,2.087 0.563,4.036 1.689,5.848c1.126,1.812 3.171,4.009 6.136,6.59c3.789,3.294 6.397,6.287 7.825,8.978c1.428,2.69 2.142,5.848 2.142,9.472c-0,4.722 -1.167,8.346 -3.501,10.872c-2.334,2.526 -5.724,3.789 -10.172,3.789Z" style="fill-rule:nonzero;"/>
            <path d="M132.988,209.56l-9.472,0l0,-8.236l28.005,-0l-0,8.236l-9.472,0l-0,49.42l-9.061,0l0,-49.42Z" style="fill-rule:nonzero;"/>
            <path d="M169.065,259.804c-4.393,0 -7.743,-1.249 -10.049,-3.748c-2.306,-2.498 -3.459,-6.081 -3.459,-10.748l-0,-43.984l9.06,-0l0,44.642c0,1.977 0.398,3.405 1.194,4.284c0.797,0.878 1.936,1.317 3.419,1.317c1.482,0 2.622,-0.439 3.418,-1.317c0.796,-0.879 1.194,-2.307 1.194,-4.284l0,-44.642l8.731,-0l0,43.984c0,4.667 -1.153,8.25 -3.459,10.748c-2.307,2.499 -5.656,3.748 -10.049,3.748Z" style="fill-rule:nonzero;"/>
            <path d="M188.998,201.324l23.968,-0l0,8.236l-14.908,0l0,16.062l11.696,-0l0,8.237l-11.696,-0l0,25.121l-9.06,0l-0,-57.656Z" style="fill-rule:nonzero;"/>
            <path d="M217.332,201.324l23.969,-0l-0,8.236l-14.909,0l0,16.062l11.696,-0l0,8.237l-11.696,-0l0,25.121l-9.06,0l-0,-57.656Z" style="fill-rule:nonzero;"/>
        </g>
    </g>
</svg>
