<?xml version="1.0" encoding="UTF-8" standalone="no"?>
<!DOCTYPE svg PUBLIC "-//W3C//DTD SVG 1.1//EN" "http://www.w3.org/Graphics/SVG/1.1/DTD/svg11.dtd">
<svg width="100%" height="100%" viewBox="0 0 148 60" version="1.1" xmlns="http://www.w3.org/2000/svg" xmlns:xlink="http://www.w3.org/1999/xlink" xml:space="preserve" xmlns:serif="http://www.serif.com/" style="fill-rule:evenodd;clip-rule:evenodd;stroke-linejoin:round;stroke-miterlimit:2;">
    <g>
        <path d="M13.343,59.304c-4.392,0 -7.715,-1.249 -9.966,-3.748c-2.251,-2.498 -3.377,-6.081 -3.377,-10.748l-0,-3.295l8.566,-0l0,3.953c0,3.734 1.565,5.601 4.695,5.601c1.538,0 2.704,-0.453 3.501,-1.359c0.796,-0.906 1.194,-2.375 1.194,-4.406c-0,-2.416 -0.549,-4.544 -1.647,-6.384c-1.099,-1.839 -3.13,-4.049 -6.096,-6.63c-3.733,-3.295 -6.342,-6.274 -7.824,-8.937c-1.483,-2.663 -2.224,-5.67 -2.224,-9.019c-0,-4.558 1.153,-8.086 3.459,-10.584c2.306,-2.499 5.656,-3.748 10.049,-3.748c4.338,-0 7.619,1.249 9.843,3.748c2.224,2.498 3.336,6.081 3.336,10.749l-0,2.388l-8.567,0l0,-2.965c0,-1.977 -0.384,-3.418 -1.153,-4.324c-0.768,-0.906 -1.894,-1.359 -3.377,-1.359c-3.02,-0 -4.53,1.839 -4.53,5.518c0,2.087 0.563,4.036 1.689,5.848c1.125,1.812 3.171,4.009 6.136,6.59c3.789,3.294 6.397,6.287 7.825,8.978c1.427,2.69 2.141,5.848 2.141,9.472c0,4.722 -1.167,8.346 -3.5,10.872c-2.334,2.526 -5.725,3.789 -10.173,3.789Z" style="fill-rule:nonzero;"/>
        <path d="M39.289,9.06l-9.472,0l-0,-8.236l28.004,-0l0,8.236l-9.472,0l0,49.42l-9.06,0l-0,-49.42Z" style="fill-rule:nonzero;"/>
        <path d="M75.366,59.304c-4.393,0 -7.743,-1.249 -10.049,-3.748c-2.306,-2.498 -3.46,-6.081 -3.46,-10.748l0,-43.984l9.061,-0l-0,44.642c-0,1.977 0.398,3.405 1.194,4.284c0.796,0.878 1.936,1.317 3.418,1.317c1.483,0 2.622,-0.439 3.419,-1.317c0.796,-0.879 1.194,-2.307 1.194,-4.284l-0,-44.642l8.731,-0l-0,43.984c-0,4.667 -1.153,8.25 -3.46,10.748c-2.306,2.499 -5.656,3.748 -10.048,3.748Z" style="fill-rule:nonzero;"/>
        <path d="M95.298,0.824l23.969,-0l0,8.236l-14.908,0l-0,16.062l11.696,-0l-0,8.237l-11.696,-0l-0,25.121l-9.061,0l0,-57.656Z" style="fill-rule:nonzero;"/>
        <path d="M123.632,0.824l23.969,-0l0,8.236l-14.908,0l-0,16.062l11.696,-0l-0,8.237l-11.696,-0l-0,25.121l-9.061,0l0,-57.656Z" style="fill-rule:nonzero;"/>
    </g>
</svg>
