<?xml version="1.0" encoding="UTF-8" standalone="no"?>
<!DOCTYPE svg PUBLIC "-//W3C//DTD SVG 1.1//EN" "http://www.w3.org/Graphics/SVG/1.1/DTD/svg11.dtd">
<svg width="100%" height="100%" viewBox="0 0 888 568" version="1.1" xmlns="http://www.w3.org/2000/svg" xmlns:xlink="http://www.w3.org/1999/xlink" xml:space="preserve" xmlns:serif="http://www.serif.com/" style="fill-rule:evenodd;clip-rule:evenodd;stroke-linejoin:round;stroke-miterlimit:2;">
    <path d="M827.069,562.833l-766.138,-0c5.431,2.069 11.1,3.653 16.955,4.697l732.228,0c5.853,-1.044 11.523,-2.627 16.955,-4.697Zm31.638,-20l-829.414,-0c1.707,1.629 3.476,3.196 5.303,4.697l818.808,0c1.826,-1.5 3.595,-3.067 5.303,-4.697Zm15.967,-20l-861.348,-0c0.955,1.597 1.954,3.163 2.998,4.697l855.352,0c1.043,-1.532 2.043,-3.1 2.998,-4.697Zm8.979,-20l-879.306,-0c0.498,1.584 1.038,3.15 1.617,4.697l876.072,0c0.579,-1.549 1.118,-3.114 1.617,-4.697Zm3.978,-20l-887.262,-0c0.139,1.578 0.317,3.144 0.533,4.697l886.196,0c0.216,-1.552 0.394,-3.119 0.533,-4.697Zm0.369,-15.303l-888,0l-0,-4.697l888,-0l-0,4.697Zm-0,-20l-888,0l-0,-4.697l888,-0l-0,4.697Zm-0,-20l-888,0l-0,-4.697l888,-0l-0,4.697Zm-0,-20l-888,0l-0,-4.697l888,-0l-0,4.697Zm-0,-20l-888,0l-0,-4.697l888,-0l-0,4.697Zm-0,-20l-888,0l-0,-4.697l888,-0l-0,4.697Zm-0,-20l-888,0l-0,-4.697l888,-0l-0,4.697Zm-0,-20l-888,0l-0,-4.697l888,-0l-0,4.697Zm-0,-20l-888,0l-0,-4.697l888,-0l-0,4.697Zm-0,-20l-888,0l-0,-4.697l888,-0l-0,4.697Zm-0,-20l-888,0l-0,-4.697l888,-0l-0,4.697Zm-0,-20l-888,0l-0,-4.697l888,-0l-0,4.697Zm-0,-20l-888,0l-0,-4.697l888,-0l-0,4.697Zm-0,-20l-888,0l-0,-4.697l888,-0l-0,4.697Zm-0,-20l-888,0l-0,-4.697l888,-0l-0,4.697Zm-0,-20l-888,0l-0,-4.697l888,-0l-0,4.697Zm-0,-20l-888,0l-0,-4.697l888,-0l-0,4.697Zm-0,-20l-888,0l-0,-4.697l888,-0l-0,4.697Zm-0,-20l-888,0l-0,-4.697l888,-0l-0,4.697Zm-0.723,-24.697l-886.554,-0c-0.193,1.558 -0.348,3.122 -0.464,4.697l887.482,0c-0.116,-1.576 -0.271,-3.142 -0.464,-4.697Zm-4.743,-20l-877.068,-0c-0.551,1.545 -1.064,3.112 -1.537,4.697l880.142,0c-0.473,-1.584 -0.985,-3.15 -1.537,-4.697Zm-9.948,-20l-857.172,-0c-1.006,1.535 -1.969,3.101 -2.887,4.697l862.946,0c-0.917,-1.595 -1.88,-3.162 -2.887,-4.697Zm-17.56,-20l-822.052,-0c-1.749,1.504 -3.444,3.071 -5.079,4.697l832.21,0c-1.635,-1.626 -3.329,-3.193 -5.079,-4.697Zm-789.433,-18.303l756.814,0c-9.135,-2.942 -18.872,-4.53 -28.977,-4.53l-698.86,0c-10.105,0 -19.842,1.588 -28.977,4.53Z" style="fill:#d9b100;"/>
</svg>
